<svg width="60" height="60" viewBox="0 0 60 60" fill="none" xmlns="http://www.w3.org/2000/svg">
<path fill-rule="evenodd" clip-rule="evenodd" d="M33.6853 52.921C34.0069 53.2398 34.0069 53.7665 33.6853 54.0853L31.1764 56.5944C31.0013 56.7701 30.7932 56.9095 30.5642 57.0046C30.3351 57.0997 30.0895 57.1487 29.8414 57.1487C29.5934 57.1487 29.3478 57.0998 29.1187 57.0047C28.8896 56.9096 28.6816 56.7702 28.5065 56.5945L25.9967 54.0856C25.6751 53.7667 25.6751 53.24 25.9967 52.9212C26.3183 52.6024 26.8388 52.6024 27.1604 52.9212L29.6695 55.4302C29.7617 55.5234 29.9209 55.5233 30.0119 55.4302L32.5216 52.9211C32.8433 52.6021 33.3644 52.6021 33.6853 52.921ZM9.76908 23.9706L9.76896 20.4218C9.76896 19.3822 10.6159 18.5366 11.6569 18.5365L15.205 18.5364C15.3132 18.5363 15.4204 18.5576 15.5204 18.599C15.6204 18.6404 15.7112 18.7012 15.7877 18.7778C15.8641 18.8545 15.9247 18.9455 15.9659 19.0456C16.0071 19.1457 16.0281 19.2529 16.0277 19.3612C16.0277 19.8116 15.6604 20.1791 15.205 20.1791L11.6569 20.1792C11.5928 20.1799 11.5315 20.2056 11.4861 20.251C11.4408 20.2964 11.415 20.3577 11.4144 20.4218L11.4145 23.9706C11.4145 24.1888 11.3278 24.3981 11.1736 24.5523C11.0193 24.7066 10.81 24.7933 10.5918 24.7933C10.3736 24.7933 10.1643 24.7066 10.01 24.5523C9.85576 24.3981 9.76908 24.1888 9.76908 23.9706ZM50.335 20.4209L50.3351 23.9696C50.3351 24.1878 50.2484 24.3971 50.0941 24.5514C49.9398 24.7057 49.7306 24.7924 49.5124 24.7924C49.2942 24.7924 49.0849 24.7057 48.9306 24.5514C48.7763 24.3971 48.6896 24.1878 48.6896 23.9696L48.6895 20.4209C48.6895 20.2892 48.5786 20.1784 48.4469 20.1784L44.8975 20.1785C44.4436 20.1785 44.0755 19.8112 44.0754 19.3607C44.0754 18.9032 44.4434 18.5359 44.8974 18.5359L48.4468 18.5358C49.488 18.5357 50.335 19.3812 50.335 20.4209ZM57.1414 49.1915H57.1406C57.1199 49.2968 56.8319 49.5476 56.6417 49.5727L52.6883 50.6333C52.27 50.7508 51.8023 50.5004 51.6818 50.051C51.5647 49.6144 51.8246 49.1639 52.2626 49.046L54.2962 48.4985L51.313 46.7797C51.1244 46.6705 50.9868 46.491 50.9304 46.2805C50.874 46.07 50.9034 45.8457 51.0121 45.6569C51.2394 45.2618 51.7427 45.1231 52.1357 45.352L55.1189 47.0777L54.5748 45.04C54.457 44.6033 54.7176 44.1528 55.1563 44.035C55.595 43.9171 56.0462 44.1805 56.1634 44.6171L57.2219 48.5677C57.2778 48.7687 57.255 48.9905 57.1414 49.1915ZM49.9946 45.0677C49.7657 45.4632 49.2583 45.5915 48.8705 45.3658L47.3893 44.5133C47.2958 44.4594 47.2138 44.3875 47.1481 44.3019C47.0824 44.2162 47.0342 44.1184 47.0063 44.0141C46.9784 43.9098 46.9714 43.801 46.9856 43.694C46.9998 43.587 47.035 43.4838 47.0892 43.3904C47.3159 42.9954 47.8183 42.8636 48.212 43.0854L49.6932 43.9448C49.7867 43.9988 49.8687 44.0706 49.9345 44.1562C50.0003 44.2418 50.0485 44.3396 50.0765 44.4438C50.1045 44.5481 50.1117 44.6568 50.0976 44.7639C50.0836 44.8709 50.0486 44.9742 49.9946 45.0677ZM8.98788 45.6578C9.0418 45.7514 9.07675 45.8547 9.09074 45.9617C9.10473 46.0688 9.09749 46.1776 9.06943 46.2819C9.04137 46.3861 8.99304 46.4839 8.9272 46.5694C8.86137 46.655 8.77931 46.7268 8.68572 46.7807L5.70264 48.4997L7.73628 49.0472C8.66316 49.2965 8.47332 50.6621 7.52424 50.6622C7.45212 50.6632 7.38024 50.6538 7.31076 50.6345L3.35868 49.5742C3.15084 49.5191 2.97204 49.3871 2.8638 49.1999H2.86032L2.8596 49.1929H2.85612V49.186H2.85408C2.74656 49.002 2.7228 48.774 2.77716 48.569L3.83544 44.6183C3.95328 44.1816 4.4052 43.9182 4.84392 44.036C5.28264 44.1539 5.54256 44.6044 5.42472 45.041L4.88004 47.0788L7.86312 45.3529C8.25732 45.131 8.76048 45.2628 8.98788 45.6578ZM12.9108 43.3913C12.9648 43.4848 12.9999 43.588 13.014 43.6951C13.0281 43.8021 13.0209 43.9109 12.9929 44.0152C12.9649 44.1195 12.9166 44.2172 12.8508 44.3028C12.785 44.3885 12.7029 44.4602 12.6094 44.5141L11.1289 45.3667C10.7408 45.5926 10.2326 45.4637 10.0054 45.0688C9.9512 44.9753 9.91602 44.8721 9.90182 44.7651C9.88763 44.658 9.89472 44.5492 9.92267 44.4449C9.95062 44.3406 9.99888 44.2428 10.0647 44.1572C10.1305 44.0715 10.2126 43.9998 10.3062 43.9459L11.7866 43.0865C12.1802 42.8646 12.6834 42.9962 12.9108 43.3913ZM30.6625 11.9239V13.6358C30.6628 13.7441 30.6418 13.8513 30.6006 13.9514C30.5594 14.0515 30.4988 14.1424 30.4224 14.2191C30.346 14.2957 30.2552 14.3565 30.1552 14.3979C30.0552 14.4394 29.948 14.4607 29.8398 14.4607C29.3858 14.4607 29.0178 14.0934 29.0178 13.636V11.924C29.0178 11.4736 29.3858 11.1061 29.8398 11.1061C30.2944 11.1061 30.6624 11.4734 30.6625 11.9239ZM26.3651 7.14852C26.0435 6.82968 26.0435 6.30984 26.3651 5.98416L29.2588 3.09384C29.2698 3.07992 29.2802 3.07308 29.2927 3.05916C29.3125 3.05916 29.4773 2.8512 29.8458 2.8512C30.2035 2.8512 30.3859 3.07296 30.4024 3.07296L30.4038 3.07992L33.3149 5.98392C33.6365 6.30972 33.6365 6.82944 33.3149 7.14828C33.239 7.22564 33.1485 7.28709 33.0485 7.32905C32.9486 7.371 32.8414 7.39261 32.733 7.39261C32.6246 7.39261 32.5174 7.371 32.4175 7.32905C32.3175 7.28709 32.227 7.22564 32.1511 7.14828L30.6623 5.65812L30.6624 9.1098C30.6624 9.56028 30.2944 9.92772 29.8397 9.92772C29.3857 9.92772 29.0177 9.5604 29.0177 9.10992L29.0176 5.65824L27.5288 7.1484C27.453 7.2258 27.3625 7.28729 27.2625 7.32927C27.1626 7.37125 27.0554 7.39288 26.947 7.39289C26.8386 7.3929 26.7313 7.3713 26.6314 7.32933C26.5315 7.28737 26.441 7.2259 26.3651 7.14852ZM44.0106 27.9898C44.0106 28.1214 43.899 28.2323 43.7681 28.2323L40.2187 28.2324C40.0871 28.2324 39.9768 28.1215 39.9768 27.9899L39.9767 24.4411C39.9767 24.3095 40.0868 24.1986 40.2186 24.1986L43.768 24.1985C43.899 24.1985 44.0106 24.3094 44.0106 24.441V27.9898ZM41.1712 36.619H40.2188C39.1784 36.619 38.3316 37.4646 38.3316 38.5043L38.3317 41.4499L33.1522 44.4443C32.8097 43.9661 32.2496 43.6472 31.6156 43.6472H30.6632L30.6631 36.9103H31.6154C32.6564 36.9103 33.5034 36.0647 33.5034 35.025L33.5033 32.0792L38.6821 29.0849C39.0245 29.5631 39.5852 29.8819 40.2187 29.8819H41.171L41.1712 36.619ZM44.011 38.5042C44.011 38.3724 43.8994 38.2616 43.7683 38.2616L40.219 38.2618C40.0872 38.2618 39.977 38.3726 39.977 38.5044L39.9772 42.053C39.9772 42.1848 40.0873 42.2957 40.2191 42.2957L43.7684 42.2956C43.8995 42.2956 44.011 42.1847 44.011 42.0529V38.5042ZM31.8583 49.0882C31.8583 49.2199 31.7474 49.3308 31.6158 49.3308L28.0664 49.3309C27.9361 49.3309 27.8239 49.22 27.8239 49.0884L27.8238 45.5398C27.8238 45.408 27.936 45.2971 28.0663 45.2971L31.6157 45.297C31.7474 45.297 31.8583 45.4079 31.8583 45.5396V49.0882ZM19.7052 42.0534C19.7052 42.1852 19.5936 42.296 19.4626 42.296L15.9125 42.2962C15.7822 42.2962 15.6713 42.1853 15.6713 42.0535L15.6712 38.5049C15.6712 38.3731 15.782 38.2622 15.9124 38.2622L19.4624 38.2621C19.5935 38.2621 19.7051 38.373 19.7051 38.5046L19.7052 42.0534ZM18.51 29.8825L18.5101 36.6194H19.4624C20.5028 36.6194 21.3498 37.465 21.3498 38.5046L21.3499 41.4503L26.5296 44.4444C26.872 43.9662 27.432 43.6474 28.0662 43.6472H29.0185L29.0184 36.9103H28.0661C27.0251 36.9103 26.1781 36.0648 26.178 35.0251L26.1779 32.0794L20.9989 29.0852C20.6566 29.5634 20.0958 29.8823 19.4623 29.8824L18.51 29.8825ZM15.671 27.9905C15.671 28.1221 15.7819 28.233 15.9122 28.233L19.4623 28.2329C19.5934 28.2329 19.705 28.122 19.705 27.9904L19.7048 24.4416C19.7048 24.31 19.5932 24.1991 19.4622 24.1991L15.9121 24.1992C15.7818 24.1992 15.6709 24.3101 15.6709 24.4417L15.671 27.9905ZM27.823 17.4133C27.823 17.2817 27.9352 17.1708 28.0655 17.1708L31.6148 17.1707C31.7466 17.1707 31.8575 17.2816 31.8575 17.4132L31.8576 20.962C31.8568 21.026 31.831 21.0873 31.7857 21.1326C31.7404 21.1779 31.6792 21.2037 31.6151 21.2045L28.0657 21.2046C27.9354 21.2046 27.8232 21.0937 27.8232 20.9621L27.823 17.4133ZM28.066 35.2678L31.6153 35.2676C31.6794 35.2669 31.7407 35.241 31.786 35.1957C31.8313 35.1504 31.8571 35.0891 31.8578 35.025L31.8577 31.4762C31.8577 31.3446 31.7468 31.2337 31.6151 31.2337L28.0657 31.2338C27.9354 31.2338 27.8232 31.3447 27.8232 31.4765L27.8233 35.0252C27.8233 35.1569 27.9356 35.2678 28.066 35.2678ZM33.1518 30.3812L38.3314 27.3869V25.0511L33.1517 22.0501C32.8093 22.5353 32.2493 22.8472 31.6151 22.8473L28.0657 22.8474C27.4315 22.8474 26.8715 22.5355 26.5291 22.0504L21.3497 25.0517V27.3875L26.5294 30.3816C26.8717 29.9034 27.4318 29.5846 28.066 29.5844L31.6153 29.5843C32.2494 29.5842 32.8094 29.903 33.1518 30.3812ZM43.768 22.5558L40.2186 22.5559C39.5851 22.5559 39.0244 22.8678 38.682 23.3531L33.503 20.352L33.5029 17.4132C33.5029 16.3735 32.6558 15.521 31.6148 15.521L28.0655 15.5212C27.0245 15.5212 26.1775 16.3738 26.1775 17.4133L26.1776 20.3521L20.9988 23.3534C20.6564 22.8683 20.0957 22.5564 19.4622 22.5564L15.9121 22.5565C14.8718 22.5565 14.0262 23.4022 14.0262 24.4418L14.0263 27.9906C14.0263 29.0303 14.872 29.8828 15.9122 29.8828H16.8646L16.8647 36.6197H15.9124C14.8721 36.6197 14.0264 37.4653 14.0264 38.505L14.0266 42.0536C14.0266 43.1003 14.8722 43.9458 15.9125 43.9458L19.4626 43.9457C20.096 43.9457 20.6568 43.6268 20.9992 43.1485L26.1781 46.1426L26.1782 49.0883C26.1782 50.128 27.0253 50.9735 28.0663 50.9735L31.6157 50.9734C32.6567 50.9734 33.5036 50.1277 33.5036 49.088L33.5035 46.1424L38.6824 43.148C39.0247 43.6262 39.5855 43.9451 40.219 43.9451L43.7683 43.945C44.8093 43.945 45.6563 43.0993 45.6563 42.0527L45.6562 38.504C45.6562 37.4644 44.8091 36.6188 43.7681 36.6188H42.8165L42.8164 29.8819H43.768C44.809 29.8819 45.6559 29.0293 45.6559 27.9898L45.6558 24.441C45.6559 23.4013 44.809 22.5558 43.768 22.5558Z" fill="#8C8278"/>
</svg>
