<svg width="60" height="60" viewBox="0 0 60 60" fill="none" xmlns="http://www.w3.org/2000/svg">
<g clip-path="url(#clip0_16_435)">
<path d="M9.99984 60C9.83871 60 9.67617 59.9698 9.52102 59.9047C9.05508 59.7125 8.75016 59.2553 8.75016 58.7498V51.2498C8.75016 50.5587 9.30996 50.0002 9.99984 50.0002C10.6901 50.0002 11.25 50.5587 11.25 51.2498V55.7327L16.6164 50.3664C16.7322 50.2501 16.8699 50.1579 17.0215 50.095C17.1732 50.0322 17.3357 49.9999 17.4998 50.0002H54.9998C56.3787 50.0002 57.5002 48.8787 57.5002 47.4998V12.5002C57.5002 11.1213 56.3787 9.99984 54.9998 9.99984H48.75C48.0588 9.99984 47.4998 9.44004 47.4998 8.75016C47.4998 8.05992 48.0588 7.5 48.75 7.5H54.9998C57.7574 7.5 60 9.74262 60 12.5002V47.4998C60 50.2574 57.7574 52.5 54.9998 52.5H18.0176L10.8838 59.6338C10.6492 59.868 10.3314 59.9997 9.99984 60ZM5.00016 52.5C2.24262 52.5 0 50.2574 0 47.4998V12.5002C0 9.74262 2.24262 7.5 5.00016 7.5H11.25C11.9399 7.5 12.5002 8.0598 12.5002 8.75016C12.5002 9.44004 11.9399 9.99984 11.25 9.99984H5.00016C3.62133 9.99984 2.49984 11.1213 2.49984 12.5002V47.4998C2.49984 48.8787 3.62133 50.0002 5.00016 50.0002C5.69004 50.0002 6.24984 50.5587 6.24984 51.2498C6.24984 51.941 5.69004 52.5 5.00016 52.5Z" fill="#8C8278"/>
<path d="M47.4998 31.2502H46.2501C45.5589 31.2502 45 30.6899 45 30C45 29.3101 45.5589 28.7498 46.2501 28.7498H47.4998C48.8786 28.7498 50.0001 27.6288 50.0001 26.25V23.7502C50.0001 22.3713 48.8786 21.2498 47.4998 21.2498H46.2501C45.5589 21.2498 45 20.69 45 20.0002V17.4998C45 9.22898 38.2713 2.49984 30 2.49984C21.7286 2.49984 15 9.22898 15 17.4998V20.0002C15 20.69 14.4402 21.2498 13.7498 21.2498C13.0599 21.2498 12.5001 20.69 12.5001 20.0002V17.4998C12.5001 7.85016 20.3498 0 30 0C39.6501 0 47.4998 7.85016 47.4998 17.4998V18.75C50.2573 18.75 52.5 20.9926 52.5 23.7502V26.25C52.5 29.0075 50.2573 31.2502 47.4998 31.2502Z" fill="#8C8278"/>
<path d="M13.7498 31.2501H12.5002C9.74262 31.2501 7.5 29.0075 7.5 26.25V23.7501C7.5 20.9926 9.74262 18.75 12.5002 18.75H13.7498C14.4401 18.75 15 19.3098 15 20.0001V30C15 30.6898 14.4402 31.2501 13.7498 31.2501ZM12.5002 21.2498C11.1213 21.2498 9.99984 22.3713 9.99984 23.7501V26.25C9.99984 27.6288 11.1213 28.7498 12.5002 28.7498V21.2498ZM30 47.4998C27.9322 47.4998 26.25 45.8176 26.25 43.7498C26.25 41.6826 27.9322 39.9998 30 39.9998C31.6301 39.9998 33.0199 41.0449 33.5362 42.5001H33.75C39.9537 42.5001 45 37.4537 45 31.2501V24.9998C45 24.3099 45.559 23.7501 46.2502 23.7501C46.9413 23.7501 47.4998 24.3099 47.4998 24.9998V31.2501C47.4998 38.8311 41.3311 45 33.75 45H32.4998C32.3357 45.0001 32.1731 44.9678 32.0214 44.905C31.8696 44.8423 31.7318 44.7502 31.6157 44.6341C31.4997 44.5179 31.4076 44.3801 31.3449 44.2283C31.2822 44.0766 31.25 43.914 31.2502 43.7498C31.2502 43.0599 30.6888 42.5001 30 42.5001C29.3112 42.5001 28.7498 43.0599 28.7498 43.7498C28.7498 44.44 29.3112 45 30 45C30.6899 45 31.2502 45.5589 31.2502 46.2501C31.2502 46.9413 30.6899 47.4998 30 47.4998ZM41.25 18.75C40.5588 18.75 39.9998 18.1902 39.9998 17.4998C39.9998 11.9861 35.5138 7.49997 30 7.49997C24.4862 7.49997 20.0002 11.986 20.0002 17.4998C20.0002 18.19 19.4399 18.75 18.75 18.75C18.0601 18.75 17.4998 18.1902 17.4998 17.4998C17.4998 10.6073 23.1075 5.00012 30 5.00012C36.8925 5.00012 42.5002 10.6073 42.5002 17.4998C42.5002 18.19 41.9412 18.75 41.25 18.75ZM23.7502 32.4998H26.25V35.0001H23.7502V32.4998ZM28.7498 32.4998H31.2502V35.0001H28.7498V32.4998Z" fill="#8C8278"/>
<path d="M33.75 32.4999H36.2498V35.0002H33.75V32.4999Z" fill="#8C8278"/>
</g>
<defs>
<clipPath id="clip0_16_435">
<rect width="60" height="60" fill="white"/>
</clipPath>
</defs>
</svg>
