<svg width="60" height="60" viewBox="0 0 60 60" fill="none" xmlns="http://www.w3.org/2000/svg">
<g clip-path="url(#clip0_16_451)">
<path d="M55.63 11.4835H48.2506L50.0309 4.84045C50.1653 4.3528 50.2018 3.8434 50.1385 3.34157C50.0751 2.83974 49.9131 2.3554 49.6618 1.91644C49.4105 1.47748 49.0748 1.09257 48.6741 0.78387C48.2734 0.475172 47.8157 0.248786 47.3271 0.117748C46.8386 -0.0132908 46.3289 -0.0463927 45.8275 0.020348C45.3262 0.0870887 44.8429 0.252353 44.4057 0.506626C43.9684 0.760899 43.5858 1.09916 43.2798 1.50192C42.9738 1.90468 42.7505 2.364 42.6228 2.85342L40.31 11.4835H4.36975C3.52778 11.4844 2.72056 11.8193 2.1252 12.4147C1.52983 13.01 1.19493 13.8173 1.19397 14.6592V47.5593C1.1949 48.4013 1.52979 49.2085 2.12516 49.8039C2.72054 50.3992 3.52777 50.7341 4.36975 50.7351H23.9125V54.987H23.0521C22.3877 54.9882 21.7509 55.2529 21.2813 55.7231C20.8118 56.1932 20.5479 56.8303 20.5475 57.4948V59.1796C20.5475 59.3971 20.6339 59.6058 20.7878 59.7596C20.9416 59.9135 21.1502 59.9999 21.3678 59.9999H38.6319C38.8494 59.9999 39.0581 59.9135 39.2119 59.7596C39.3657 59.6058 39.4522 59.3971 39.4522 59.1796V57.4951C39.4518 56.8307 39.1879 56.1935 38.7183 55.7234C38.2488 55.2533 37.612 54.9886 36.9475 54.9873H36.0871V50.7351H55.63C56.472 50.7341 57.2792 50.3992 57.8746 49.8038C58.4699 49.2085 58.8048 48.4012 58.8058 47.5593V14.6592C58.8048 13.8173 58.4699 13.01 57.8746 12.4147C57.2792 11.8193 56.472 11.4844 55.63 11.4835ZM41.7223 12.5531C41.7276 12.5365 41.7317 12.5194 41.7359 12.5023L44.2076 3.27963C44.2815 3.00054 44.4097 2.73878 44.5849 2.50934C44.7601 2.2799 44.9789 2.08729 45.2287 1.94256C45.4785 1.79783 45.7544 1.70381 46.0406 1.66591C46.3267 1.628 46.6176 1.64695 46.8965 1.72167C47.1753 1.79639 47.4367 1.9254 47.6656 2.10132C47.8945 2.27724 48.0864 2.4966 48.2304 2.74684C48.3743 2.99707 48.4675 3.27326 48.5045 3.55957C48.5415 3.84587 48.5217 4.13667 48.4461 4.41529L41.5959 29.9765L37.3579 28.8397L41.7223 12.5531ZM40.6809 31.4296L38.1796 34.2502L37.4232 30.5554L40.6809 31.4296ZM36.9476 56.6281C37.1771 56.6288 37.3969 56.7205 37.5588 56.8831C37.7207 57.0456 37.8115 57.2658 37.8113 57.4953V58.3593H22.1885V57.4956C22.1882 57.2662 22.2791 57.046 22.441 56.8834C22.6029 56.7208 22.8227 56.6291 23.0521 56.6284L36.9476 56.6281ZM25.5535 54.9874V50.7351H34.4463V54.987L25.5535 54.9874ZM57.1647 47.5593C57.1644 47.9663 57.0026 48.3566 56.7147 48.6444C56.4269 48.9323 56.0366 49.0941 55.6296 49.0944H4.36975C3.9627 49.0941 3.5724 48.9323 3.28457 48.6444C2.99674 48.3566 2.83491 47.9663 2.83459 47.5593V44.2077H57.1647V47.5593ZM57.1647 42.5664H2.83506V14.6592C2.83537 14.2522 2.99721 13.8619 3.28504 13.5741C3.57287 13.2862 3.96317 13.1244 4.37022 13.1241H39.8703L35.5605 29.2061C35.5274 29.3291 35.5234 29.4582 35.5488 29.5831L36.9012 36.1874C36.9317 36.3368 37.0032 36.4747 37.1077 36.5857C37.2122 36.6967 37.3455 36.7764 37.4928 36.8158C37.64 36.8553 37.7953 36.8529 37.9413 36.809C38.0873 36.7651 38.2182 36.6813 38.3192 36.5672L42.7905 31.5245C42.875 31.4292 42.9361 31.3155 42.969 31.1925L47.8108 13.1249H55.63C56.0371 13.1252 56.4274 13.287 56.7152 13.5749C57.003 13.8627 57.1649 14.253 57.1652 14.6601L57.1647 42.5664ZM28.0251 46.6522C28.0251 46.4347 28.1115 46.226 28.2654 46.0722C28.4192 45.9184 28.6279 45.8319 28.8454 45.8319H31.154C31.3716 45.8319 31.5802 45.9184 31.7341 46.0722C31.8879 46.226 31.9743 46.4347 31.9743 46.6522C31.9743 46.8698 31.8879 47.0785 31.7341 47.2323C31.5802 47.3861 31.3716 47.4726 31.154 47.4726H28.8454C28.6279 47.4726 28.4192 47.3861 28.2654 47.2323C28.1115 47.0785 28.0251 46.8698 28.0251 46.6522ZM27.8689 25.0963H23.6373C23.6398 25.0157 23.6435 24.9352 23.6435 24.854C23.644 23.4129 23.2257 22.0028 22.4397 20.795C21.6536 19.5873 20.5335 18.634 19.2157 18.051C17.8979 17.468 16.439 17.2805 15.0166 17.5112C13.5941 17.742 12.2694 18.3811 11.2034 19.3508C10.1375 20.3205 9.37622 21.579 9.01227 22.9733C8.64832 24.3676 8.69734 25.8376 9.15337 27.2046C9.6094 28.5716 10.4528 29.7766 11.581 30.6732C12.7092 31.5697 14.0735 32.1191 15.5082 32.2546V37.4538C15.5082 37.6714 15.5946 37.8801 15.7485 38.0339C15.9023 38.1877 16.1109 38.2742 16.3285 38.2742H27.8688C28.0863 38.2742 28.295 38.1877 28.4488 38.0339C28.6027 37.8801 28.6891 37.6714 28.6891 37.4538V25.9171C28.6891 25.8094 28.6679 25.7027 28.6267 25.6031C28.5855 25.5036 28.5251 25.4131 28.4489 25.3369C28.3728 25.2607 28.2824 25.2003 28.1828 25.159C28.0833 25.1178 27.9766 25.0966 27.8689 25.0965V25.0963ZM15.5082 25.9166V30.6035C14.4001 30.4687 13.3545 30.0167 12.4971 29.3019C11.6398 28.587 11.0072 27.6397 10.6754 26.5739C10.3436 25.5081 10.3267 24.3691 10.6267 23.2939C10.9268 22.2187 11.531 21.2531 12.3668 20.5131C13.2026 19.7731 14.2343 19.2903 15.3379 19.1227C16.4415 18.9551 17.5701 19.1099 18.5879 19.5683C19.6056 20.0268 20.4693 20.7695 21.0751 21.7072C21.6808 22.6448 22.0028 23.7375 22.0024 24.8537C22.0024 24.9349 21.9996 25.0156 21.9963 25.0961H16.3286C16.2208 25.0961 16.1141 25.1173 16.0145 25.1585C15.9149 25.1998 15.8244 25.2603 15.7482 25.3365C15.6721 25.4128 15.6116 25.5033 15.5704 25.6029C15.5292 25.7025 15.5081 25.8093 15.5082 25.9171V25.9166ZM21.6862 26.7369C21.3443 27.7246 20.7425 28.6017 19.944 29.2761C19.1456 29.9505 18.1801 30.3971 17.1492 30.569V26.7369H21.6862ZM27.0483 36.6328H17.1492V32.2265C18.6188 32.0365 19.9984 31.4128 21.112 30.4351C22.2255 29.4574 23.0224 28.1701 23.401 26.7374H27.0483V36.6328Z" fill="#8C8278"/>
</g>
<defs>
<clipPath id="clip0_16_451">
<rect width="60" height="60" fill="white"/>
</clipPath>
</defs>
</svg>
