<svg width="60" height="60" viewBox="0 0 60 60" fill="none" xmlns="http://www.w3.org/2000/svg">
<path d="M56.2434 47.9053C56.239 47.2706 55.9838 46.6635 55.5335 46.2162C55.0832 45.7689 54.4744 45.5177 53.8397 45.5175H50.4178V20.2031C50.4178 19.9629 50.3224 19.7326 50.1526 19.5628C49.9827 19.3929 49.7524 19.2975 49.5122 19.2975C49.272 19.2975 49.0416 19.3929 48.8718 19.5628C48.702 19.7326 48.6066 19.9629 48.6066 20.2031V45.5156H25.0519C24.9312 45.5117 24.811 45.5322 24.6984 45.5758C24.5858 45.6194 24.4831 45.6853 24.3966 45.7695C24.31 45.8537 24.2413 45.9545 24.1946 46.0658C24.1479 46.1771 24.1241 46.2968 24.1247 46.4175C24.1245 47.1485 23.9686 47.8711 23.6673 48.5371C23.3659 49.2031 22.9261 49.7973 22.3772 50.28C19.1119 53.2397 13.7672 50.6944 13.8684 46.2075V41.1141L15.7012 42.1603C15.8392 42.237 15.9947 42.2765 16.1526 42.2749C16.3104 42.2734 16.4651 42.2309 16.6016 42.1516C16.7381 42.0724 16.8516 41.959 16.9311 41.8226C17.0106 41.6862 17.0533 41.5316 17.055 41.3737V34.2038C17.3173 34.2751 17.5918 34.29 17.8603 34.2477C18.1289 34.2054 18.3854 34.1067 18.6131 33.9581C19.5937 33.2569 19.2703 31.8422 19.4475 30.9141C20.2866 30.4163 21.7331 30.33 22.1072 29.1516C22.4925 27.99 21.3581 27.075 20.9916 26.1797C21.1059 25.9063 21.2556 25.6491 21.4369 25.4147C22.7587 23.7319 22.26 22.3613 20.2256 21.7838C19.9627 21.7042 19.7083 21.5987 19.4662 21.4688C19.4003 21.1884 19.3713 20.9007 19.38 20.6128C19.4597 18.5062 18.2991 17.6166 16.2844 18.3525C16.0176 18.4458 15.7417 18.5105 15.4612 18.5456C14.955 18.1219 14.5144 17.2219 13.8694 16.8422V9.65625C13.8696 9.33459 13.9975 9.02617 14.225 8.79872C14.4524 8.57126 14.7608 8.44337 15.0825 8.44312H47.385C47.7067 8.44601 48.0146 8.57446 48.2429 8.80108C48.4713 9.0277 48.6021 9.33457 48.6075 9.65625V16.5816C48.6019 16.7038 48.6212 16.826 48.6642 16.9406C48.7071 17.0552 48.7729 17.1599 48.8574 17.2484C48.942 17.3369 49.0436 17.4073 49.1561 17.4555C49.2687 17.5036 49.3898 17.5284 49.5122 17.5284C49.6346 17.5284 49.7557 17.5036 49.8682 17.4555C49.9808 17.4073 50.0824 17.3369 50.167 17.2484C50.2515 17.1599 50.3173 17.0552 50.3602 16.9406C50.4032 16.826 50.4224 16.7038 50.4169 16.5816V9.65625C50.4146 8.85361 50.0942 8.08461 49.5259 7.51784C48.9575 6.95108 48.1876 6.63281 47.385 6.63281H15.0825C14.2809 6.6338 13.5125 6.95266 12.9457 7.51945C12.3789 8.08624 12.0601 8.85469 12.0591 9.65625V16.8356C11.6481 17.1344 11.2921 17.5024 11.0072 17.9231C10.8535 18.1432 10.6796 18.3485 10.4878 18.5362C10.1969 18.5109 9.91025 18.4492 9.63468 18.3525C7.65468 17.6325 6.45937 18.465 6.53906 20.6138C6.54506 20.8928 6.52276 21.1717 6.4725 21.4462C6.22848 21.5913 5.96701 21.7047 5.69437 21.7838C3.69375 22.3453 3.14437 23.7281 4.48218 25.4147C4.6618 25.6474 4.8117 25.9015 4.92843 26.1713C4.81613 26.4484 4.66595 26.7087 4.48218 26.9447C3.16875 28.6134 3.65625 30.0037 5.69343 30.5756C5.95668 30.6548 6.21137 30.76 6.45375 30.8897C6.51936 31.1701 6.54804 31.4578 6.53906 31.7456C6.46031 33.2044 7.15218 34.5975 8.8575 34.2056V41.3737C8.85923 41.5316 8.90193 41.6862 8.98141 41.8226C9.06089 41.959 9.17442 42.0724 9.3109 42.1516C9.44737 42.2309 9.6021 42.2734 9.75993 42.2749C9.91776 42.2765 10.0733 42.237 10.2112 42.1603L12.0581 41.1056V46.2075C12.0305 47.9221 12.6283 49.5881 13.7399 50.8939C14.8514 52.1997 16.4005 53.0559 18.0975 53.3025C18.3994 53.3466 18.7041 53.3466 19.0031 53.3653H32.1122C32.2335 53.3692 32.3544 53.3487 32.4676 53.305C32.5808 53.2612 32.6841 53.1952 32.7713 53.1107C32.8585 53.0263 32.9278 52.9252 32.9752 52.8134C33.0225 52.7017 33.0469 52.5815 33.0469 52.4602C33.0469 52.3388 33.0225 52.2186 32.9752 52.1069C32.9278 51.9951 32.8585 51.894 32.7713 51.8096C32.6841 51.7251 32.5808 51.6591 32.4676 51.6153C32.3544 51.5716 32.2335 51.5511 32.1122 51.555H23.6597C24.8717 50.4503 25.654 48.9527 25.8684 47.3269H53.8406C53.9824 47.3254 54.12 47.3749 54.2283 47.4665C54.3365 47.5581 54.4083 47.6855 54.4303 47.8256L54.4387 48.0881C54.4416 48.996 54.0871 49.8686 53.4519 50.5173C52.8167 51.166 51.9518 51.5388 51.0441 51.555H35.7347C35.4997 51.5626 35.2768 51.6612 35.1132 51.8302C34.9497 51.9991 34.8582 52.225 34.8582 52.4602C34.8582 52.6953 34.9497 52.9212 35.1132 53.0901C35.2768 53.2591 35.4997 53.3577 35.7347 53.3653H51.0441C51.7464 53.3558 52.4397 53.2061 53.0834 52.925C53.7271 52.6439 54.3082 52.2371 54.7926 51.7284C55.277 51.2198 55.6549 50.6195 55.9042 49.9628C56.1535 49.3062 56.2691 48.6063 56.2444 47.9044L56.2434 47.9053ZM8.34937 31.7006C8.4375 29.5594 7.33125 29.1872 5.57718 28.6106C5.97375 27.8409 6.73968 27.1294 6.73875 26.1806C6.73687 25.2375 5.99625 24.5419 5.58843 23.7769C6.35718 23.3953 7.37718 23.2763 7.92562 22.5244C8.47312 21.7688 8.27531 20.7609 8.40093 19.9106C9.25125 20.055 10.1437 20.5481 11.0353 20.2622C11.9203 19.9772 12.3525 19.0125 12.96 18.4153C13.5675 19.0125 13.9987 19.9763 14.8837 20.2622C15.7734 20.55 16.6697 20.055 17.5181 19.9106C17.595 22.5525 17.7947 22.9406 20.3428 23.7497C19.9462 24.5203 19.1794 25.2309 19.1803 26.1806C19.1822 27.1238 19.9228 27.8194 20.3306 28.5844C19.5637 28.9659 18.5419 29.0869 17.9944 29.8359C17.4459 30.5925 17.6447 31.6003 17.5181 32.4506C16.6687 32.3062 15.7725 31.8094 14.8837 32.0991C13.9987 32.3841 13.5684 33.3497 12.96 33.9459C12.3525 33.3478 11.9203 32.385 11.0362 32.0991C10.1503 31.8122 9.24937 32.3053 8.40187 32.4506C8.36748 32.2021 8.34994 31.9515 8.34937 31.7006ZM10.6678 34.0144C12.3412 36.3956 13.5787 36.4069 15.2447 34.0172V39.8156L13.4044 38.7656C13.2678 38.6874 13.1132 38.6463 12.9558 38.6463C12.7984 38.6463 12.6438 38.6874 12.5072 38.7656L10.6678 39.8156V34.0144Z" fill="#8C8278"/>
<path d="M12.96 30.2757C14.0461 30.2757 15.0876 29.8442 15.8556 29.0763C16.6236 28.3083 17.055 27.2667 17.055 26.1807C17.055 25.0946 16.6236 24.053 15.8556 23.2851C15.0876 22.5171 14.0461 22.0857 12.96 22.0857C11.8739 22.0857 10.8323 22.5171 10.0644 23.2851C9.29643 24.053 8.86499 25.0946 8.86499 26.1807C8.86499 27.2667 9.29643 28.3083 10.0644 29.0763C10.8323 29.8442 11.8739 30.2757 12.96 30.2757ZM12.96 23.896C13.5659 23.896 14.147 24.1367 14.5755 24.5652C15.004 24.9936 15.2447 25.5747 15.2447 26.1807C15.2447 26.7866 15.004 27.3677 14.5755 27.7962C14.147 28.2247 13.5659 28.4654 12.96 28.4654C12.3541 28.4654 11.7729 28.2247 11.3445 27.7962C10.916 27.3677 10.6753 26.7866 10.6753 26.1807C10.6753 25.5747 10.916 24.9936 11.3445 24.5652C11.7729 24.1367 12.3541 23.896 12.96 23.896ZM41.1787 15.5569V11.7291C41.1789 11.6101 41.1555 11.4923 41.1101 11.3824C41.0646 11.2725 40.9979 11.1726 40.9138 11.0885C40.8296 11.0043 40.7298 10.9376 40.6198 10.8922C40.5099 10.8467 40.3921 10.8234 40.2731 10.8235H22.2C22.081 10.8234 21.9632 10.8467 21.8533 10.8922C21.7433 10.9376 21.6435 11.0043 21.5593 11.0885C21.4752 11.1726 21.4085 11.2725 21.363 11.3824C21.3176 11.4923 21.2942 11.6101 21.2944 11.7291V15.5569C21.2942 15.6759 21.3176 15.7937 21.363 15.9036C21.4085 16.0136 21.4752 16.1135 21.5593 16.1976C21.6435 16.2817 21.7433 16.3484 21.8533 16.3939C21.9632 16.4393 22.081 16.4627 22.2 16.4625H40.2731C40.3921 16.4627 40.5099 16.4393 40.6198 16.3939C40.7298 16.3484 40.8296 16.2817 40.9138 16.1976C40.9979 16.1135 41.0646 16.0136 41.1101 15.9036C41.1555 15.7937 41.1789 15.6759 41.1787 15.5569ZM39.3684 14.6513H23.1056V12.6338H39.3684V14.6513ZM43.3059 20.8163H24.5456C24.3054 20.8163 24.0751 20.9117 23.9052 21.0816C23.7354 21.2514 23.64 21.4817 23.64 21.7219C23.64 21.9621 23.7354 22.1925 23.9052 22.3623C24.0751 22.5321 24.3054 22.6275 24.5456 22.6275H43.305C43.5452 22.6275 43.7755 22.5321 43.9454 22.3623C44.1152 22.1925 44.2106 21.9621 44.2106 21.7219C44.2106 21.4817 44.1152 21.2514 43.9454 21.0816C43.7755 20.9117 43.5461 20.8163 43.3059 20.8163ZM43.3059 25.4494H26.3325C26.0975 25.457 25.8746 25.5557 25.711 25.7246C25.5475 25.8935 25.456 26.1194 25.456 26.3546C25.456 26.5897 25.5475 26.8156 25.711 26.9846C25.8746 27.1535 26.0975 27.2522 26.3325 27.2597H43.3059C43.5409 27.2522 43.7638 27.1535 43.9274 26.9846C44.091 26.8156 44.1824 26.5897 44.1824 26.3546C44.1824 26.1194 44.091 25.8935 43.9274 25.7246C43.7638 25.5557 43.5409 25.457 43.3059 25.4494ZM43.3059 30.0835H24.5456C24.3128 30.0941 24.093 30.194 23.932 30.3625C23.771 30.531 23.6812 30.7551 23.6812 30.9882C23.6812 31.2212 23.771 31.4453 23.932 31.6138C24.093 31.7823 24.3128 31.8823 24.5456 31.8929H43.305C43.5378 31.8823 43.7576 31.7823 43.9186 31.6138C44.0796 31.4453 44.1694 31.2212 44.1694 30.9882C44.1694 30.7551 44.0796 30.531 43.9186 30.3625C43.7576 30.194 43.5387 30.0941 43.3059 30.0835ZM43.3059 34.7157H22.5966C22.3564 34.7157 22.126 34.8111 21.9562 34.9809C21.7863 35.1508 21.6909 35.3811 21.6909 35.6213C21.6909 35.8615 21.7863 36.0918 21.9562 36.2617C22.126 36.4315 22.3564 36.5269 22.5966 36.5269H43.3059C43.5461 36.5269 43.7765 36.4315 43.9463 36.2617C44.1161 36.0918 44.2116 35.8615 44.2116 35.6213C44.2116 35.3811 44.1161 35.1508 43.9463 34.9809C43.7765 34.8111 43.5461 34.7157 43.3059 34.7157ZM43.3059 39.3488H19.7531C19.5181 39.3564 19.2952 39.455 19.1317 39.624C18.9681 39.7929 18.8766 40.0188 18.8766 40.254C18.8766 40.4891 18.9681 40.715 19.1317 40.8839C19.2952 41.0529 19.5181 41.1515 19.7531 41.1591H43.305C43.54 41.1515 43.7629 41.0529 43.9264 40.8839C44.09 40.715 44.1815 40.4891 44.1815 40.254C44.1815 40.0188 44.09 39.7929 43.9264 39.624C43.7629 39.455 43.5409 39.3564 43.3059 39.3488Z" fill="#8C8278"/>
</svg>
